<svg id="start" xmlns="http://www.w3.org/2000/svg" xmlns:xlink="http://www.w3.org/1999/xlink" width="24" height="24" viewBox="0 0 60 60">
  <metadata><?xpacket begin="﻿" id="W5M0MpCehiHzreSzNTczkc9d"?>
<x:xmpmeta xmlns:x="adobe:ns:meta/" x:xmptk="Adobe XMP Core 5.6-c138 79.159824, 2016/09/14-01:09:01        ">
   <rdf:RDF xmlns:rdf="http://www.w3.org/1999/02/22-rdf-syntax-ns#">
      <rdf:Description rdf:about=""
            xmlns:xmp="http://ns.adobe.com/xap/1.0/">
         <xmp:CreatorTool>Adobe Photoshop CC 2017 (Windows)</xmp:CreatorTool>
      </rdf:Description>
   </rdf:RDF>
</x:xmpmeta>
                                                                                                    
                                                                                                    
                                                                                                    
                                                                                                    
                                                                                                    
                                                                                                    
                                                                                                    
                                                                                                    
                                                                                                    
                                                                                                    
                                                                                                    
                                                                                                    
                                                                                                    
                                                                                                    
                                                                                                    
                                                                                                    
                                                                                                    
                                                                                                    
                                                                                                    
                                                                                                    
                           
<?xpacket end="w"?></metadata>
<defs>
    <style>
      .cls-1 {
        fill: url(#linear-gradient);
      }

      .cls-2 {
        fill: #fff;
        fill-rule: evenodd;
      }
    </style>
    <linearGradient id="linear-gradient" x1="30" y1="60" x2="30" gradientUnits="userSpaceOnUse">
      <stop offset="0" stop-color="#7178ef"/>
      <stop offset="1" stop-color="#6bd6fd"/>
    </linearGradient>
  </defs>
  <rect id="矩形_1074_拷贝" data-name="矩形 1074 拷贝" class="cls-1" width="60" height="60" rx="12" ry="12"/>
  <path id="形状_3" data-name="形状 3" class="cls-2" d="M14.175,21.426h2.339a0.173,0.173,0,0,0,.175-0.17l0-2.331a0.5,0.5,0,0,1,.5-0.491h25.6a0.5,0.5,0,0,1,.5.491v2.323a0.173,0.173,0,0,0,.175.171l2.346,0.006A0.173,0.173,0,0,0,46,21.255l0-8.937a0.317,0.317,0,0,0-.32-0.312l-3.614,0a0.316,0.316,0,0,0-.321.312l0,3.316a0.476,0.476,0,0,1-.482.469H32.588a0.476,0.476,0,0,1-.482-0.47V12.318a0.316,0.316,0,0,0-.32-0.312l-3.573,0a0.316,0.316,0,0,0-.321.312l0,3.316a0.476,0.476,0,0,1-.482.469H18.734a0.476,0.476,0,0,1-.482-0.47V12.318a0.316,0.316,0,0,0-.32-0.312l-3.606,0a0.316,0.316,0,0,0-.321.312l0,8.942A0.173,0.173,0,0,0,14.175,21.426ZM45.563,23.9H35.255a0.879,0.879,0,0,0-.891.867v7.722a1.352,1.352,0,0,1-.649,1.138l-2.995,1.824a1.436,1.436,0,0,1-1.446,0L26.28,33.625a1.349,1.349,0,0,1-.652-1.138V24.764a0.879,0.879,0,0,0-.891-0.867h-10.3a0.43,0.43,0,0,0-.436.424V34.21a9.271,9.271,0,0,0,4.5,7.933l8.056,4.916A6.625,6.625,0,0,0,30,48a6.518,6.518,0,0,0,3.43-.942l8.059-4.916A9.262,9.262,0,0,0,46,34.21V24.321A0.43,0.43,0,0,0,45.563,23.9ZM21.171,40.843l-1.159-.722a6.825,6.825,0,0,1-3.325-5.845v-7.83a0.259,0.259,0,0,1,.263-0.256L22.377,26.2a0.563,0.563,0,0,1,.57.555v6.6a2.108,2.108,0,0,0,1.029,1.807l3.313,2.017a0.2,0.2,0,0,1,0,.344l-5.441,3.323A0.648,0.648,0,0,1,21.171,40.843ZM35.75,42.716l-4.018,2.437-0.056.027A3.233,3.233,0,0,1,30,45.622a3.289,3.289,0,0,1-1.708-.456l-4.046-2.449a0.225,0.225,0,0,1,0-.388l5.368-3.28a0.721,0.721,0,0,1,.748,0l5.39,3.282A0.225,0.225,0,0,1,35.75,42.716Zm7.557-8.44a6.818,6.818,0,0,1-3.333,5.845l-1.151.72a0.648,0.648,0,0,1-.679,0L32.7,37.523a0.2,0.2,0,0,1,0-.344l3.318-2.017a2.117,2.117,0,0,0,1.026-1.807l0.01-6.609a0.564,0.564,0,0,1,.573-0.555h5.415a0.259,0.259,0,0,1,.263.256v7.831Z"/>
</svg>
