<svg xmlns="http://www.w3.org/2000/svg" width="16" height="16" viewBox="0 0 16 16">
  <metadata><?xpacket begin="﻿" id="W5M0MpCehiHzreSzNTczkc9d"?>
<x:xmpmeta xmlns:x="adobe:ns:meta/" x:xmptk="Adobe XMP Core 5.6-c138 79.159824, 2016/09/14-01:09:01        ">
   <rdf:RDF xmlns:rdf="http://www.w3.org/1999/02/22-rdf-syntax-ns#">
      <rdf:Description rdf:about=""/>
   </rdf:RDF>
</x:xmpmeta>
                                                                                                    
                                                                                                    
                                                                                                    
                                                                                                    
                                                                                                    
                                                                                                    
                                                                                                    
                                                                                                    
                                                                                                    
                                                                                                    
                                                                                                    
                                                                                                    
                                                                                                    
                                                                                                    
                                                                                                    
                                                                                                    
                                                                                                    
                                                                                                    
                                                                                                    
                                                                                                    
                           
<?xpacket end="w"?></metadata>
<defs>
    <style>
      .cls-1 {
        fill: #fff;
        fill-rule: evenodd;
      }
    </style>
  </defs>
  <path id="锁屏" class="cls-1" d="M212.364,510H199.636a0.637,0.637,0,0,1-.636-0.64v-7.68a0.637,0.637,0,0,1,.636-0.64h1.353v-4.48a2.552,2.552,0,0,1,2.545-2.56h4.932a2.552,2.552,0,0,1,2.545,2.56v4.48h1.353a0.637,0.637,0,0,1,.636.64v7.68A0.637,0.637,0,0,1,212.364,510Zm-2.784-13.44a1.118,1.118,0,0,0-1.114-1.12h-4.932a1.117,1.117,0,0,0-1.113,1.12v4.48h7.159v-4.48Zm1.988,5.92H200.432v6.08h11.136v-6.08Zm-5.068,2.443a1.149,1.149,0,0,1,1.159,1.14,1.133,1.133,0,0,1-.483.926v1.259a0.192,0.192,0,0,1-.193.189h-0.966a0.192,0.192,0,0,1-.193-0.189v-1.259a1.133,1.133,0,0,1-.483-0.926A1.149,1.149,0,0,1,206.5,504.923Z" transform="translate(-198 -494)"/>
</svg>
